<?xml version="1.0" encoding="UTF-8"?>
<svg width="220px" height="220px" viewBox="0 0 220 220" version="1.1" xmlns="http://www.w3.org/2000/svg" xmlns:xlink="http://www.w3.org/1999/xlink">
    <!-- Generator: Sketch 54.1 (76490) - https://sketchapp.com -->
    <title>Envelope Copy 2</title>
    <desc>Created with Sketch.</desc>
    <defs>
        <path d="M119.182557,14.8497612 C128.365114,21.3015942 210,70.9078472 210,80 C210,86.0614352 210,89.3947686 210,90 C210,156.666667 210,193.333333 210,200 C210,210 210,210 200.909091,210 C191.818182,210 28.1818182,210 19.0909091,210 C10,210 10,210 10,200 C10,193.333333 10,156.666667 10,90 C10,89.3947686 10,86.0614352 10,80 C10,70.9078472 91.8731474,21.1282897 100.936574,14.763109 C110,8.3979282 110,8.3979282 119.182557,14.8497612 Z" id="path-1"></path>
        <filter x="-6.2%" y="-5.2%" width="113.5%" height="113.5%" filterUnits="objectBoundingBox" id="filter-2">
            <feOffset dx="1" dy="3" in="SourceAlpha" result="shadowOffsetOuter1"></feOffset>
            <feGaussianBlur stdDeviation="4" in="shadowOffsetOuter1" result="shadowBlurOuter1"></feGaussianBlur>
            <feComposite in="shadowBlurOuter1" in2="SourceAlpha" operator="out" result="shadowBlurOuter1"></feComposite>
            <feColorMatrix values="0 0 0 0 0   0 0 0 0 0   0 0 0 0 0  0 0 0 0.25 0" type="matrix" in="shadowBlurOuter1"></feColorMatrix>
        </filter>
        <linearGradient x1="50%" y1="0%" x2="50%" y2="100%" id="linearGradient-3">
            <stop stop-color="#FCFCFC" offset="0%"></stop>
            <stop stop-color="#F8F8F8" offset="100%"></stop>
        </linearGradient>
        <linearGradient x1="50%" y1="0%" x2="50%" y2="100%" id="linearGradient-4">
            <stop stop-color="#FCFCFC" offset="0%"></stop>
            <stop stop-color="#F8F8F8" offset="100%"></stop>
        </linearGradient>
    </defs>
    <g id="Envelope-Copy-2" stroke="none" stroke-width="1" fill="none" fill-rule="evenodd">
        <g id="Rectangle-Copy-2">
            <use fill="black" fill-opacity="1" filter="url(#filter-2)" xlink:href="#path-1"></use>
            <path stroke="#D8D8D8" stroke-width="1" d="M118.895107,15.2588733 C113.238424,11.2843838 111.827147,10.491838 109.97243,10.5000428 C108.143059,10.5081354 106.748826,11.2921908 101.223934,15.1722837 C99.8179336,16.1597081 68.4261302,36.1520409 56.1497866,44.2546563 C54.1266935,45.5899354 52.1606769,46.8958832 50.2505143,48.1737506 C25.1766934,64.9477249 10.5,76.4050137 10.5,80 C10.5,84.2050637 10.5,84.2050637 10.5,87.0460764 C10.5,89.2050637 10.5,89.2050637 10.5,90 C10.5,136.25 10.5,136.25 10.5,167.5 C10.5,191.25 10.5,191.25 10.5,200 C10.5,209.733929 10.2873375,209.5 19.0909091,209.5 C22.0028409,209.5 22.0028409,209.5 29.140625,209.5 C38.0894886,209.5 38.0894886,209.5 50.0568182,209.5 C77.6136364,209.5 77.6136364,209.5 110,209.5 C142.386364,209.5 142.386364,209.5 169.943182,209.5 C181.910511,209.5 181.910511,209.5 190.859375,209.5 C197.997159,209.5 197.997159,209.5 200.909091,209.5 C209.712663,209.5 209.5,209.733929 209.5,200 C209.5,191.25 209.5,191.25 209.5,167.5 C209.5,136.25 209.5,136.25 209.5,90 C209.5,89.2050637 209.5,89.2050637 209.5,87.0460764 C209.5,84.2050637 209.5,84.2050637 209.5,80 C209.5,76.4018912 194.846075,64.9633103 169.793523,48.2090503 C167.884587,46.9324219 165.919648,45.6276246 163.89735,44.2933171 C151.744286,36.2747565 120.368832,16.2943395 118.895107,15.2588733 Z" stroke-linejoin="square" fill="#F2F2F2" fill-rule="evenodd"></path>
        </g>
        <path d="M110.971825,145 L209.5,204.116905 L209.5,85.8830952 L110.971825,145 Z M10.5,204.116905 L109.028175,145 L10.5,85.8830952 L10.5,204.116905 Z" id="Rectangle" stroke="#D8D8D8" fill="url(#linearGradient-3)"></path>
        <path d="M10.499945,201.162479 C10.4965013,209.71954 10.3618745,209.5 19.0909091,209.5 C22.0028409,209.5 22.0028409,209.5 29.140625,209.5 C38.0894886,209.5 38.0894886,209.5 50.0568182,209.5 C77.6136364,209.5 77.6136364,209.5 110,209.5 C142.386364,209.5 142.386364,209.5 169.943182,209.5 C181.910511,209.5 181.910511,209.5 190.859375,209.5 C197.997159,209.5 197.997159,209.5 200.909091,209.5 C209.638318,209.5 209.503493,209.71955 209.500055,201.161913 C209.388553,201.080506 209.200204,200.942997 208.78614,200.640699 C207.745291,199.880839 207.163952,199.456464 206.179527,198.737895 C203.366878,196.684838 200.217409,194.386344 196.806358,191.897471 C187.060501,184.786408 177.17117,177.574537 167.740277,170.702337 C140.799982,151.071205 122.908747,138.07893 118.895107,135.258873 C113.238424,131.284384 111.827147,130.491838 109.97243,130.500043 C108.143059,130.508135 106.748826,131.292191 101.223934,135.172284 C97.2355724,137.973282 93.8216459,140.436482 90.2246624,143.087682 C89.5512097,143.584059 84.2015436,147.553983 82.888113,148.509336 C49.6158626,172.710647 49.6158626,172.710647 28.4426124,188.111481 C20.1245498,194.161809 20.1245498,194.161809 14.8312372,198.012017 C11.4228265,200.491201 11.0870039,200.735469 10.4999454,201.162479 Z" id="Rectangle" stroke="#D8D8D8" fill="url(#linearGradient-4)"></path>
    </g>
</svg>