<?xml version="1.0" encoding="UTF-8"?>
<svg width="102px" height="17px" viewBox="0 0 102 17" version="1.1" xmlns="http://www.w3.org/2000/svg" xmlns:xlink="http://www.w3.org/1999/xlink">
    <!-- Generator: Sketch 54.1 (76490) - https://sketchapp.com -->
    <title>logo</title>
    <desc>Created with Sketch.</desc>
    <g id="logo" stroke="none" stroke-width="1" fill="none" fill-rule="evenodd">
        <path d="M1.60314342,12.0810811 C1.60314342,12.5945972 1.67995994,12.9493233 1.83359528,13.1452703 C1.98723063,13.3412172 2.27111777,13.4391892 2.68526523,13.4391892 C2.96581673,13.4391892 3.20962568,13.4189191 3.41669941,13.3783784 C3.62377314,13.3378376 3.86758209,13.2635141 4.1481336,13.1554054 L3.88762279,14.7162162 C3.44675615,14.9054064 2.95245853,15 2.40471513,15 C1.58977982,15 0.985267196,14.7770293 0.591159136,14.3310811 C0.197051075,13.8851329 2.22480842e-16,13.2027073 0,12.2837838 L0,0 L1.60314342,0 L1.60314342,12.0810811 Z M14.8090373,9.2027027 C14.8090373,9.58108297 14.7823185,9.95945757 14.7288802,10.3378378 L7.1740668,10.3378378 C7.26758396,11.36487 7.60490869,12.1621593 8.18605108,12.7297297 C8.76719348,13.2973001 9.51865944,13.5810811 10.4404715,13.5810811 C11.1752493,13.5810811 11.7864416,13.452704 12.2740668,13.1959459 C12.761692,12.9391879 13.092337,12.56757 13.2660118,12.0810811 L14.6086444,12.7905405 C14.2078565,13.5067603 13.6734807,14.0540522 13.005501,14.4324324 C12.3375212,14.8108127 11.4825199,15 10.4404715,15 C8.93083725,15 7.74519095,14.5337884 6.88349705,13.6013514 C6.02180316,12.6689143 5.59096267,11.3783866 5.59096267,9.72972973 C5.59096267,8.08107284 6.00176406,6.7905452 6.82337917,5.85810811 C7.64499428,4.92567101 8.81060149,4.45945946 10.3202358,4.45945946 C11.2554074,4.45945946 12.0636508,4.66891682 12.7449902,5.08783784 C13.4263295,5.50675885 13.9406662,6.07432074 14.2880157,6.79054054 C14.6353652,7.50676034 14.8090373,8.31080635 14.8090373,9.2027027 Z M10.3202358,5.87837838 C9.43850247,5.87837838 8.72711469,6.14188926 8.18605108,6.66891892 C7.64498747,7.19594858 7.31434245,7.93918439 7.19410609,8.89864865 L13.2660118,8.89864865 C13.159135,7.95269797 12.8518689,7.21284051 12.3442043,6.67905405 C11.8365397,6.1452676 11.1618903,5.87837838 10.3202358,5.87837838 Z M23.686444,14.0878378 C23.0184642,14.695949 22.1567833,15 21.1013752,15 C20.2864399,15 19.62181,14.7770293 19.1074656,14.3310811 C18.5931212,13.8851329 18.3292732,13.2027073 18.3159136,12.2837838 L18.3159136,6.06081081 L16.3119843,6.06081081 L16.3119843,4.66216216 L18.3159136,4.66216216 L18.3159136,2.22972973 L19.919057,1.78378378 L19.919057,4.66216216 L23.6263261,4.66216216 L23.6263261,6.06081081 L19.919057,6.06081081 L19.919057,12 C19.919057,12.4864889 20.0559908,12.8547285 20.3298625,13.1047297 C20.6037342,13.354731 20.9677777,13.4797297 21.4220039,13.4797297 C22.0632645,13.4797297 22.6310388,13.2297322 23.1253438,12.7297297 L23.686444,14.0878378 Z M30.8003929,14.0878378 C30.1324132,14.695949 29.2707322,15 28.2153242,15 C27.4003889,15 26.735759,14.7770293 26.2214145,14.3310811 C25.7070701,13.8851329 25.4432221,13.2027073 25.4298625,12.2837838 L25.4298625,6.06081081 L23.4259332,6.06081081 L23.4259332,4.66216216 L25.4298625,4.66216216 L25.4298625,2.22972973 L27.0330059,1.78378378 L27.0330059,4.66216216 L30.740275,4.66216216 L30.740275,6.06081081 L27.0330059,6.06081081 L27.0330059,12 C27.0330059,12.4864889 27.1699397,12.8547285 27.4438114,13.1047297 C27.7176831,13.354731 28.0817266,13.4797297 28.5359528,13.4797297 C29.1772134,13.4797297 29.7449877,13.2297322 30.2392927,12.7297297 L30.8003929,14.0878378 Z M41.6616896,9.2027027 C41.6616896,9.58108297 41.6349708,9.95945757 41.5815324,10.3378378 L34.0267191,10.3378378 C34.1202362,11.36487 34.4575609,12.1621593 35.0387033,12.7297297 C35.6198457,13.2973001 36.3713117,13.5810811 37.2931238,13.5810811 C38.0279015,13.5810811 38.6390938,13.452704 39.1267191,13.1959459 C39.6143443,12.9391879 39.9449893,12.56757 40.118664,12.0810811 L41.4612967,12.7905405 C41.0605088,13.5067603 40.526133,14.0540522 39.8581532,14.4324324 C39.1901735,14.8108127 38.3351722,15 37.2931238,15 C35.7834895,15 34.5978432,14.5337884 33.7361493,13.6013514 C32.8744554,12.6689143 32.4436149,11.3783866 32.4436149,9.72972973 C32.4436149,8.08107284 32.8544163,6.7905452 33.6760314,5.85810811 C34.4976465,4.92567101 35.6632537,4.45945946 37.172888,4.45945946 C38.1080597,4.45945946 38.9163031,4.66891682 39.5976424,5.08783784 C40.2789818,5.50675885 40.7933185,6.07432074 41.140668,6.79054054 C41.4880175,7.50676034 41.6616896,8.31080635 41.6616896,9.2027027 Z M37.172888,5.87837838 C36.2911547,5.87837838 35.5797669,6.14188926 35.0387033,6.66891892 C34.4976397,7.19594858 34.1669947,7.93918439 34.0467583,8.89864865 L40.118664,8.89864865 C40.0117873,7.95269797 39.7045212,7.21284051 39.1968566,6.67905405 C38.689192,6.1452676 38.0145425,5.87837838 37.172888,5.87837838 Z M49.4369352,4.45945946 C49.9178806,4.45945946 50.285264,4.52702635 50.5390963,4.66216216 L50.2184676,6.24324324 C49.8978373,6.06756669 49.4770164,5.97972973 48.9559921,5.97972973 C48.5284851,5.97972973 48.111004,6.10472848 47.7035363,6.35472973 C47.2960687,6.60473098 46.9620838,6.98310557 46.7015717,7.48986486 C46.4410596,7.99662416 46.3108055,8.60810453 46.3108055,9.32432432 L46.3108055,14.7972973 L44.7076621,14.7972973 L44.7076621,4.66216216 L46.0102161,4.66216216 L46.2306483,6.32432432 C46.7917513,5.08107486 47.8605029,4.45945946 49.4369352,4.45945946 Z M52.0821218,12.3648649 C52.4695501,12.3648649 52.7834959,12.4864853 53.0239686,12.7297297 C53.2644413,12.9729742 53.3846758,13.2905386 53.3846758,13.6824324 C53.3846758,14.0743263 53.2644413,14.3918907 53.0239686,14.6351351 C52.7834959,14.8783796 52.4695501,15 52.0821218,15 C51.6946935,15 51.3807478,14.8783796 51.140275,14.6351351 C50.8998023,14.3918907 50.7795678,14.0743263 50.7795678,13.6824324 C50.7795678,13.2905386 50.8998023,12.9729742 51.140275,12.7297297 C51.3807478,12.4864853 51.6946935,12.3648649 52.0821218,12.3648649 Z M61.6408644,14.0878378 C60.9728847,14.695949 60.1112037,15 59.0557957,15 C58.2408604,15 57.5762305,14.7770293 57.0618861,14.3310811 C56.5475416,13.8851329 56.2836936,13.2027073 56.270334,12.2837838 L56.270334,6.06081081 L54.2664047,6.06081081 L54.2664047,4.66216216 L56.270334,4.66216216 L56.270334,2.22972973 L57.8734774,1.78378378 L57.8734774,4.66216216 L61.5807466,4.66216216 L61.5807466,6.06081081 L57.8734774,6.06081081 L57.8734774,12 C57.8734774,12.4864889 58.0104112,12.8547285 58.2842829,13.1047297 C58.5581546,13.354731 58.9221981,13.4797297 59.3764244,13.4797297 C60.0176849,13.4797297 60.5854592,13.2297322 61.0797642,12.7297297 L61.6408644,14.0878378 Z M68.1335953,4.45945946 C69.6432296,4.45945946 70.8288758,4.92567101 71.6905697,5.85810811 C72.5522636,6.7905452 72.9831041,8.08107284 72.9831041,9.72972973 C72.9831041,11.3783866 72.5522636,12.6689143 71.6905697,13.6013514 C70.8288758,14.5337884 69.6432296,15 68.1335953,15 C66.623961,15 65.4383147,14.5337884 64.5766208,13.6013514 C63.7149269,12.6689143 63.2840864,11.3783866 63.2840864,9.72972973 C63.2840864,8.08107284 63.7149269,6.7905452 64.5766208,5.85810811 C65.4383147,4.92567101 66.623961,4.45945946 68.1335953,4.45945946 Z M68.1335953,5.85810811 C67.118266,5.85810811 66.323382,6.20269926 65.7489194,6.89189189 C65.1744569,7.58108453 64.8872299,8.52702101 64.8872299,9.72972973 C64.8872299,10.9324384 65.1744569,11.8783749 65.7489194,12.5675676 C66.323382,13.2567602 67.118266,13.6013514 68.1335953,13.6013514 C69.1489245,13.6013514 69.9438085,13.2567602 70.5182711,12.5675676 C71.0927337,11.8783749 71.3799607,10.9324384 71.3799607,9.72972973 C71.3799607,8.52702101 71.0927337,7.58108453 70.5182711,6.89189189 C69.9438085,6.20269926 69.1489245,5.85810811 68.1335953,5.85810811 Z M80.3174853,4.45945946 C81.8271195,4.45945946 83.0127658,4.92567101 83.8744597,5.85810811 C84.7361536,6.7905452 85.1669941,8.08107284 85.1669941,9.72972973 C85.1669941,11.3783866 84.7361536,12.6689143 83.8744597,13.6013514 C83.0127658,14.5337884 81.8271195,15 80.3174853,15 C78.807851,15 77.6222047,14.5337884 76.7605108,13.6013514 C75.8988169,12.6689143 75.4679764,11.3783866 75.4679764,9.72972973 C75.4679764,8.08107284 75.8988169,6.7905452 76.7605108,5.85810811 C77.6222047,4.92567101 78.807851,4.45945946 80.3174853,4.45945946 Z M80.3174853,5.85810811 C79.302156,5.85810811 78.507272,6.20269926 77.9328094,6.89189189 C77.3583468,7.58108453 77.0711198,8.52702101 77.0711198,9.72972973 C77.0711198,10.9324384 77.3583468,11.8783749 77.9328094,12.5675676 C78.507272,13.2567602 79.302156,13.6013514 80.3174853,13.6013514 C81.3328145,13.6013514 82.1276985,13.2567602 82.7021611,12.5675676 C83.2766237,11.8783749 83.5638507,10.9324384 83.5638507,9.72972973 C83.5638507,8.52702101 83.2766237,7.58108453 82.7021611,6.89189189 C82.1276985,6.20269926 81.3328145,5.85810811 80.3174853,5.85810811 Z M89.7960707,12.0810811 C89.7960707,12.5945972 89.8728872,12.9493233 90.0265226,13.1452703 C90.1801579,13.3412172 90.4640451,13.4391892 90.8781925,13.4391892 C91.158744,13.4391892 91.402553,13.4189191 91.6096267,13.3783784 C91.8167004,13.3378376 92.0605094,13.2635141 92.3410609,13.1554054 L92.0805501,14.7162162 C91.6396835,14.9054064 91.1453858,15 90.5976424,15 C89.7827071,15 89.1781945,14.7770293 88.7840864,14.3310811 C88.3899784,13.8851329 88.1929273,13.2027073 88.1929273,12.2837838 L88.1929273,0 L89.7960707,0 L89.7960707,12.0810811 Z M97.8117878,15 C96.849897,15 95.9815363,14.8074344 95.2066798,14.4222973 C94.4318232,14.0371602 93.864049,13.46622 93.5033399,12.7094595 L94.8058939,11.7972973 C95.033007,12.3918949 95.4271092,12.8378364 95.9882122,13.1351351 C96.5493152,13.4324339 97.2106052,13.5810811 97.9721022,13.5810811 C98.7603183,13.5810811 99.3614911,13.4391906 99.7756385,13.1554054 C100.189786,12.8716202 100.396857,12.5135157 100.396857,12.0810811 C100.396857,11.6891872 100.203145,11.3750012 99.8157171,11.1385135 C99.4282888,10.9020258 98.7469597,10.6959468 97.7717092,10.5202703 C96.8098184,10.3445937 96.0483329,10.131758 95.4872299,9.88175676 C94.9261269,9.63175551 94.5186653,9.31419111 94.264833,8.92905405 C94.0110007,8.54391699 93.8840864,8.06757041 93.8840864,7.5 C93.8840864,6.94594318 94.0443992,6.43919149 94.3650295,5.97972973 C94.6856598,5.52026797 95.1465589,5.15202841 95.7477407,4.875 C96.3489225,4.59797159 97.043611,4.45945946 97.8318271,4.45945946 C98.9005947,4.45945946 99.7589359,4.65878179 100.406876,5.05743243 C101.054817,5.45608307 101.519056,6.06756345 101.799607,6.89189189 L100.436935,7.7027027 C100.223182,7.05405081 99.8992163,6.58783926 99.4650295,6.30405405 C99.0308426,6.02026885 98.4864473,5.87837838 97.8318271,5.87837838 C97.1772069,5.87837838 96.6227921,6.02702554 96.1685658,6.32432432 C95.7143396,6.62162311 95.4872299,6.96621426 95.4872299,7.35810811 C95.4872299,7.80405628 95.6842809,8.14864743 96.078389,8.39189189 C96.4724971,8.63513635 97.1772051,8.84459372 98.1925344,9.02027027 C99.5819323,9.25000115 100.563848,9.5945923 101.13831,10.0540541 C101.712773,10.5135158 102,11.162158 102,12 C102,12.581084 101.829668,13.0979707 101.488998,13.5506757 C101.148328,14.0033806 100.66071,14.3581068 100.02613,14.6148649 C99.3915489,14.8716229 98.6534423,15 97.8117878,15 Z" id="letter.tools" fill="#000000" fill-rule="nonzero"></path>
    </g>
</svg>